<svg xmlns="http://www.w3.org/2000/svg" xmlns:xlink="http://www.w3.org/1999/xlink" width="500" zoomAndPan="magnify" viewBox="0 0 375 374.999991" height="500" preserveAspectRatio="xMidYMid meet" version="1.0"><defs><g/><clipPath id="fca2d85c1a"><path d="M 202.855469 139.289062 L 277.789062 139.289062 L 277.789062 206.039062 L 202.855469 206.039062 Z M 202.855469 139.289062 " clip-rule="nonzero"/></clipPath><clipPath id="3bd20e988b"><path d="M 9 58 L 133.679688 58 L 133.679688 174 L 9 174 Z M 9 58 " clip-rule="nonzero"/></clipPath><clipPath id="252048f3d4"><rect x="0" width="134" y="0" height="247"/></clipPath><clipPath id="5ba0e62347"><path d="M 0.078125 63 L 125.601562 63 L 125.601562 184 L 0.078125 184 Z M 0.078125 63 " clip-rule="nonzero"/></clipPath><clipPath id="7e27aa5294"><rect x="0" width="126" y="0" height="261"/></clipPath><clipPath id="f3daffb159"><path d="M 0.078125 64 L 125.601562 64 L 125.601562 185 L 0.078125 185 Z M 0.078125 64 " clip-rule="nonzero"/></clipPath><clipPath id="a10aefacce"><rect x="0" width="126" y="0" height="262"/></clipPath></defs><rect x="-37.5" width="450" fill="#ffffff" y="-37.499999" height="449.999989" fill-opacity="1"/><rect x="-37.5" width="450" fill="#ffffff" y="-37.499999" height="449.999989" fill-opacity="1"/><g clip-path="url(#fca2d85c1a)"><path fill="#000000" d="M 203.878906 167.839844 L 203.167969 169.304688 C 203.09375 169.457031 202.867188 169.410156 202.863281 169.242188 C 202.8125 167.101562 203.003906 164.992188 203.449219 162.914062 C 204.632812 157.394531 208.125 153.992188 213.425781 152.261719 C 213.492188 152.238281 213.511719 152.152344 213.460938 152.101562 L 213.390625 152.035156 C 213.378906 152.027344 213.363281 152.023438 213.351562 152.027344 L 209.453125 153.136719 C 209.339844 153.171875 209.257812 153.027344 209.347656 152.949219 C 213.636719 149.191406 219.210938 147.839844 224.671875 149.03125 C 227.113281 149.566406 229.109375 150.46875 230.652344 151.742188 C 234.414062 154.839844 236.425781 160.425781 236.40625 165.136719 C 236.390625 169.777344 233.570312 173.640625 231.054688 177.851562 C 230.710938 178.429688 230.296875 179.527344 229.804688 181.148438 C 229.085938 183.523438 229.054688 186.605469 229.195312 188.976562 C 229.320312 191.160156 231.015625 193.90625 232.707031 195.46875 C 232.75 195.503906 232.8125 195.507812 232.855469 195.476562 C 232.902344 195.441406 232.914062 195.378906 232.886719 195.328125 C 231.519531 192.890625 230.804688 190.332031 230.746094 187.644531 C 230.671875 184.488281 231.007812 181.28125 232.476562 178.5 C 234.488281 174.679688 237.25 171.675781 240.757812 169.492188 C 241.273438 169.175781 241.683594 168.714844 241.949219 168.167969 C 243.324219 165.332031 244.875 162.605469 246.59375 159.992188 C 248.363281 157.308594 250.492188 154.871094 252.988281 152.683594 C 253.050781 152.632812 253.101562 152.570312 253.144531 152.5 L 255.28125 148.894531 C 255.359375 148.769531 255.367188 148.613281 255.300781 148.476562 C 254.359375 146.550781 254.128906 144.511719 254.613281 142.371094 C 254.679688 142.074219 255.027344 141.15625 255.652344 139.621094 C 255.703125 139.496094 255.855469 139.4375 255.980469 139.503906 C 256.394531 139.726562 256.820312 139.875 257.25 139.949219 C 259.480469 140.3125 260.140625 143.164062 260.679688 144.90625 C 260.710938 145.011719 260.859375 145.011719 260.894531 144.90625 L 262.589844 139.550781 C 262.65625 139.339844 262.890625 139.234375 263.09375 139.320312 C 264.625 139.976562 265.707031 141.035156 265.570312 142.851562 C 265.527344 143.472656 265.578125 144.160156 265.730469 144.914062 C 265.824219 145.367188 266.144531 145.738281 266.578125 145.890625 C 269.742188 146.996094 272.1875 148.269531 274.097656 151.003906 C 274.40625 151.449219 274.984375 152.554688 275.832031 154.316406 C 276.425781 155.558594 277.058594 156.640625 277.722656 157.566406 C 277.832031 157.71875 277.796875 157.929688 277.644531 158.039062 C 276.210938 159.035156 274.761719 161.117188 273.246094 161.898438 C 272.046875 162.515625 270.753906 162.832031 269.375 162.859375 C 267.855469 162.886719 267.058594 162.90625 266.984375 162.917969 C 266.863281 162.929688 266.769531 163.03125 266.761719 163.152344 C 266.671875 164.433594 266.800781 165.539062 267.164062 166.464844 C 267.289062 166.796875 267.609375 167.027344 267.964844 167.046875 C 269.839844 167.144531 271.527344 167.851562 273.015625 169.160156 C 273.964844 169.996094 274.019531 170.972656 273.269531 171.898438 C 272.621094 172.699219 271.691406 173.167969 270.488281 173.300781 C 270.222656 173.332031 270.050781 173.023438 270.21875 172.8125 C 270.597656 172.335938 270.691406 171.972656 270.496094 171.726562 C 270.292969 171.464844 269.882812 171.464844 269.621094 171.71875 C 267.914062 173.363281 266.105469 174.824219 263.90625 175.398438 C 263.578125 175.484375 263.335938 175.769531 263.300781 176.105469 C 263.089844 178.136719 262.933594 179.410156 262.835938 179.917969 C 262.445312 181.980469 260.859375 184.1875 259.640625 185.710938 C 259.566406 185.800781 259.605469 185.933594 259.714844 185.972656 C 266.679688 188.542969 265.574219 193.902344 261.929688 198.683594 C 261.074219 199.808594 260.199219 200.640625 259.304688 201.183594 C 259.195312 201.25 259.246094 201.414062 259.367188 201.414062 C 261.761719 201.394531 263.617188 201.472656 264.929688 201.640625 C 267.207031 201.941406 268.191406 203.171875 267.894531 205.34375 C 267.839844 205.730469 267.507812 206.019531 267.117188 206.019531 C 258.835938 206.046875 251.363281 206.042969 244.691406 206.003906 C 243.796875 206 242.96875 205.894531 242.199219 205.679688 C 242.128906 205.660156 242.0625 205.617188 242.011719 205.5625 L 241.460938 204.9375 C 241.398438 204.859375 241.308594 204.808594 241.210938 204.78125 C 238.945312 204.1875 236.613281 204.207031 234.046875 204.171875 C 226.257812 204.0625 219.875 199.453125 216.925781 192.34375 C 216.488281 191.285156 216.265625 190.117188 216.269531 188.835938 C 216.269531 188.695312 216.367188 188.574219 216.507812 188.542969 L 216.519531 188.542969 C 216.640625 188.515625 216.765625 188.59375 216.800781 188.71875 C 216.890625 189.039062 216.984375 189.25 217.09375 189.339844 C 217.175781 189.40625 217.300781 189.335938 217.28125 189.226562 C 217.128906 188.429688 216.734375 187.949219 216.109375 187.285156 C 214.6875 185.777344 214.101562 183.035156 214.121094 180.996094 C 214.132812 180.050781 213.792969 178.941406 213.378906 178.265625 C 213.332031 178.191406 213.21875 178.230469 213.226562 178.316406 L 213.464844 180.765625 C 213.46875 180.863281 213.347656 180.90625 213.296875 180.824219 C 212.820312 180.09375 212.496094 179.277344 212.316406 178.382812 C 211.9375 176.484375 211.75 174.722656 211.757812 173.097656 C 211.757812 173.007812 211.644531 172.972656 211.597656 173.050781 C 210.886719 174.25 210.539062 175.671875 210.542969 177.3125 C 210.542969 177.648438 210.203125 177.878906 209.894531 177.746094 C 207.523438 176.730469 206.066406 174.824219 205.527344 172.015625 C 205.511719 171.929688 205.394531 171.914062 205.351562 171.992188 C 204.957031 172.777344 204.761719 173.589844 204.769531 174.421875 C 204.769531 174.46875 204.738281 174.503906 204.699219 174.511719 C 204.652344 174.519531 204.609375 174.496094 204.59375 174.453125 C 204.101562 173.113281 203.832031 171.730469 203.789062 170.308594 C 203.765625 169.578125 204.1875 168.492188 204.070312 167.867188 C 204.054688 167.769531 203.921875 167.75 203.878906 167.839844 Z M 203.878906 167.839844 " fill-opacity="1" fill-rule="nonzero"/></g><g transform="matrix(1, 0, 0, 1, 120, 35)"><g clip-path="url(#252048f3d4)"><g clip-path="url(#3bd20e988b)"><g fill="#000000" fill-opacity="1"><g transform="translate(0.456867, 172.875754)"><g><path d="M 49.90625 1.015625 C 42.375 1.015625 35.546875 -0.640625 29.421875 -3.953125 C 23.296875 -7.273438 18.429688 -12.164062 14.828125 -18.625 C 11.234375 -25.09375 9.4375 -32.820312 9.4375 -41.8125 C 9.4375 -48.675781 10.617188 -56.320312 12.984375 -64.75 C 18.148438 -82.738281 26.269531 -95.441406 37.34375 -102.859375 C 48.414062 -110.273438 60.25 -113.984375 72.84375 -113.984375 C 84.3125 -113.984375 94.65625 -109.828125 103.875 -101.515625 L 108.9375 -106.40625 C 111.738281 -108.757812 114.148438 -110.382812 116.171875 -111.28125 C 118.203125 -112.1875 120.566406 -112.640625 123.265625 -112.640625 C 126.191406 -112.640625 128.550781 -111.9375 130.34375 -110.53125 C 132.144531 -109.125 133.046875 -107.242188 133.046875 -104.890625 C 133.046875 -103.984375 132.878906 -102.914062 132.546875 -101.6875 L 126.46875 -80.4375 C 125.34375 -76.832031 124.019531 -74.300781 122.5 -72.84375 C 120.988281 -71.382812 118.9375 -70.65625 116.34375 -70.65625 C 113.644531 -70.65625 111.253906 -71.328125 109.171875 -72.671875 C 107.097656 -74.023438 104.710938 -76.441406 102.015625 -79.921875 C 98.421875 -84.648438 95.242188 -87.992188 92.484375 -89.953125 C 89.734375 -91.921875 86.726562 -92.90625 83.46875 -92.90625 C 78.40625 -92.90625 73.597656 -90.347656 69.046875 -85.234375 C 64.492188 -80.117188 60.53125 -71.601562 57.15625 -59.6875 C 55.019531 -51.9375 53.953125 -45.25 53.953125 -39.625 C 53.953125 -33.664062 55.101562 -29.140625 57.40625 -26.046875 C 59.71875 -22.960938 62.953125 -21.421875 67.109375 -21.421875 C 70.710938 -21.421875 73.492188 -22.257812 75.453125 -23.9375 C 77.421875 -25.625 78.96875 -28.550781 80.09375 -32.71875 L 81.28125 -36.921875 C 81.84375 -39.171875 82.125 -40.691406 82.125 -41.484375 C 82.125 -42.828125 81.8125 -43.78125 81.1875 -44.34375 C 80.570312 -44.90625 79.535156 -45.523438 78.078125 -46.203125 L 72.171875 -48.390625 C 69.585938 -49.398438 68.296875 -51.253906 68.296875 -53.953125 C 68.296875 -54.742188 68.351562 -55.363281 68.46875 -55.8125 C 68.914062 -57.269531 69.726562 -58.335938 70.90625 -59.015625 C 72.082031 -59.691406 73.910156 -60.03125 76.390625 -60.03125 L 127.3125 -59.859375 C 131.019531 -59.859375 132.875 -58.679688 132.875 -56.328125 C 132.875 -55.867188 132.765625 -55.191406 132.546875 -54.296875 C 132.085938 -52.609375 131.351562 -51.257812 130.34375 -50.25 C 129.332031 -49.238281 127.875 -48.226562 125.96875 -47.21875 L 121.578125 -44.6875 C 120.453125 -44.007812 119.609375 -43.359375 119.046875 -42.734375 C 118.484375 -42.117188 118.09375 -41.363281 117.875 -40.46875 L 108.9375 -9.28125 C 107.8125 -5.5625 106.546875 -3.082031 105.140625 -1.84375 C 103.734375 -0.613281 102.019531 0 100 0 L 92.90625 0 C 90.207031 0 87.988281 -0.5625 86.25 -1.6875 C 84.507812 -2.8125 83.078125 -5.003906 81.953125 -8.265625 L 80.265625 -13.15625 C 72.171875 -3.707031 62.050781 1.015625 49.90625 1.015625 Z M 49.90625 1.015625 "/></g></g></g></g></g></g><g transform="matrix(1, 0, 0, 1, 130, 84)"><g clip-path="url(#7e27aa5294)"><g clip-path="url(#5ba0e62347)"><g fill="#0097b2" fill-opacity="1"><g transform="translate(4.684922, 182.734045)"><g><path d="M 62.84375 -96.671875 C 63.082031 -97.390625 63.203125 -98.347656 63.203125 -99.546875 C 63.203125 -101.453125 62.691406 -103 61.671875 -104.1875 C 60.660156 -105.382812 59.082031 -106.703125 56.9375 -108.140625 C 55.144531 -109.453125 53.859375 -110.582031 53.078125 -111.53125 C 52.304688 -112.488281 52.097656 -113.625 52.453125 -114.9375 C 52.816406 -116.601562 53.710938 -117.734375 55.140625 -118.328125 C 56.578125 -118.929688 58.84375 -119.234375 61.9375 -119.234375 L 112.796875 -119.234375 C 115.296875 -119.234375 117.234375 -118.816406 118.609375 -117.984375 C 119.984375 -117.148438 120.671875 -116.078125 120.671875 -114.765625 C 120.671875 -114.160156 120.488281 -113.382812 120.125 -112.4375 C 119.769531 -111.59375 119.265625 -110.84375 118.609375 -110.1875 C 117.953125 -109.53125 117.351562 -109.050781 116.8125 -108.75 C 116.28125 -108.457031 115.894531 -108.191406 115.65625 -107.953125 C 113.75 -106.878906 112.195312 -105.6875 111 -104.375 C 109.800781 -103.0625 108.785156 -101.03125 107.953125 -98.28125 L 90.40625 -36.34375 C 86.832031 -23.6875 80.75 -14.285156 72.15625 -8.140625 C 63.5625 -1.992188 52.398438 1.078125 38.671875 1.078125 C 29.484375 1.078125 21.695312 -0.265625 15.3125 -2.953125 C 8.925781 -5.640625 4.117188 -9.25 0.890625 -13.78125 C -2.328125 -18.320312 -3.9375 -23.273438 -3.9375 -28.640625 C -3.9375 -31.265625 -3.578125 -33.832031 -2.859375 -36.34375 C -1.304688 -41.71875 1.34375 -45.773438 5.09375 -48.515625 C 8.851562 -51.265625 13.0625 -52.640625 17.71875 -52.640625 C 23.09375 -52.640625 27.210938 -51.023438 30.078125 -47.796875 C 32.941406 -44.578125 34.375 -40.460938 34.375 -35.453125 C 34.375 -32.941406 34.015625 -30.429688 33.296875 -27.921875 C 31.867188 -22.910156 29.1875 -19.210938 25.25 -16.828125 C 27.15625 -15.628906 29.363281 -15.03125 31.875 -15.03125 C 34.375 -15.03125 36.578125 -16.285156 38.484375 -18.796875 C 40.398438 -21.304688 42.015625 -24.828125 43.328125 -29.359375 Z M 62.84375 -96.671875 "/></g></g></g></g></g></g><g transform="matrix(1, 0, 0, 1, 130, 85)"><g clip-path="url(#a10aefacce)"><g clip-path="url(#f3daffb159)"><g fill="#0097b2" fill-opacity="1"><g transform="translate(4.684922, 183.388784)"><g><path d="M 62.84375 -96.671875 C 63.082031 -97.390625 63.203125 -98.347656 63.203125 -99.546875 C 63.203125 -101.453125 62.691406 -103 61.671875 -104.1875 C 60.660156 -105.382812 59.082031 -106.703125 56.9375 -108.140625 C 55.144531 -109.453125 53.859375 -110.582031 53.078125 -111.53125 C 52.304688 -112.488281 52.097656 -113.625 52.453125 -114.9375 C 52.816406 -116.601562 53.710938 -117.734375 55.140625 -118.328125 C 56.578125 -118.929688 58.84375 -119.234375 61.9375 -119.234375 L 112.796875 -119.234375 C 115.296875 -119.234375 117.234375 -118.816406 118.609375 -117.984375 C 119.984375 -117.148438 120.671875 -116.078125 120.671875 -114.765625 C 120.671875 -114.160156 120.488281 -113.382812 120.125 -112.4375 C 119.769531 -111.59375 119.265625 -110.84375 118.609375 -110.1875 C 117.953125 -109.53125 117.351562 -109.050781 116.8125 -108.75 C 116.28125 -108.457031 115.894531 -108.191406 115.65625 -107.953125 C 113.75 -106.878906 112.195312 -105.6875 111 -104.375 C 109.800781 -103.0625 108.785156 -101.03125 107.953125 -98.28125 L 90.40625 -36.34375 C 86.832031 -23.6875 80.75 -14.285156 72.15625 -8.140625 C 63.5625 -1.992188 52.398438 1.078125 38.671875 1.078125 C 29.484375 1.078125 21.695312 -0.265625 15.3125 -2.953125 C 8.925781 -5.640625 4.117188 -9.25 0.890625 -13.78125 C -2.328125 -18.320312 -3.9375 -23.273438 -3.9375 -28.640625 C -3.9375 -31.265625 -3.578125 -33.832031 -2.859375 -36.34375 C -1.304688 -41.71875 1.34375 -45.773438 5.09375 -48.515625 C 8.851562 -51.265625 13.0625 -52.640625 17.71875 -52.640625 C 23.09375 -52.640625 27.210938 -51.023438 30.078125 -47.796875 C 32.941406 -44.578125 34.375 -40.460938 34.375 -35.453125 C 34.375 -32.941406 34.015625 -30.429688 33.296875 -27.921875 C 31.867188 -22.910156 29.1875 -19.210938 25.25 -16.828125 C 27.15625 -15.628906 29.363281 -15.03125 31.875 -15.03125 C 34.375 -15.03125 36.578125 -16.285156 38.484375 -18.796875 C 40.398438 -21.304688 42.015625 -24.828125 43.328125 -29.359375 Z M 62.84375 -96.671875 "/></g></g></g></g></g></g></svg>