<svg xmlns="http://www.w3.org/2000/svg" xmlns:xlink="http://www.w3.org/1999/xlink" width="500" zoomAndPan="magnify" viewBox="0 0 375 374.999991" height="500" preserveAspectRatio="xMidYMid meet" version="1.0"><defs><clipPath id="6f0b007136"><path d="M 91 95 L 229.445312 95 L 229.445312 196 L 91 196 Z M 91 95 " clip-rule="nonzero"/></clipPath></defs><g clip-path="url(#6f0b007136)"><path fill="#ffffff" d="M 207.867188 195.644531 L 223.953125 195.644531 C 223.953125 195.644531 224.527344 195.207031 224.5625 194.933594 C 224.5625 194.933594 225.390625 194.96875 225.523438 195.355469 C 225.523438 195.355469 225.625 194.242188 224.546875 193.765625 C 223.464844 193.292969 223.566406 193.089844 221.722656 192.382812 C 219.878906 191.671875 215.640625 192.261719 213.867188 192.09375 C 212.09375 191.925781 210.015625 191.148438 211.09375 186.519531 C 212.175781 181.890625 214.476562 174.386719 218.730469 169.585938 C 222.8125 164.992188 225.402344 157.292969 224.183594 151.601562 C 221.105469 152.839844 218.027344 152.875 218.027344 152.875 C 224.449219 151.664062 227.675781 148.648438 227.3125 143.296875 C 227.039062 139.253906 226.570312 133.507812 224.84375 129.695312 C 224.84375 129.695312 225.898438 131.148438 226.648438 133.34375 C 226.863281 132.21875 227.207031 130.582031 227.71875 128.664062 C 228.699219 124.980469 229.441406 116.90625 229.308594 113.421875 C 229.171875 109.941406 226.0625 115.113281 225.148438 117.140625 C 224.699219 118.144531 221.34375 125.457031 221.335938 125.65625 C 221.335938 125.65625 221.378906 124.808594 221.589844 124.0625 C 219.925781 125.433594 213.585938 125.644531 211.828125 124.332031 C 211.996094 125.042969 212.109375 125.636719 212.109375 125.636719 C 210.140625 121.949219 209.789062 117.226562 207.101562 113.796875 C 205.273438 111.464844 204.871094 111.5 204.597656 114.167969 C 204.328125 116.839844 202.535156 123.765625 203.046875 127.011719 C 203.550781 130.257812 204.632812 131.035156 203.789062 134.277344 C 203.15625 136.707031 202.394531 141.019531 202.933594 143.855469 C 202.933594 143.855469 202.101562 141.363281 202.425781 138.769531 C 200.179688 139.277344 192.605469 141.074219 182.191406 144.449219 C 169.6875 148.503906 158.597656 151.960938 152.453125 160.332031 C 146.800781 168.035156 145.679688 172.488281 142.210938 173.785156 C 140.433594 174.449219 138.03125 173.78125 136.898438 172.3125 C 136.898438 172.3125 138.882812 173.496094 140.621094 173.230469 C 136.445312 166.839844 135.667969 144.515625 137.855469 131.75 C 146.882812 79.054688 79.4375 91.652344 93.46875 122.53125 C 96.664062 129.570312 102.136719 128.890625 105.324219 129.820312 C 105.378906 121.765625 101.320312 121.984375 101.320312 121.984375 C 106.425781 120.695312 106.175781 128.363281 106.476562 131.210938 C 108.085938 146.472656 109.796875 160.089844 119.34375 172.585938 C 122.753906 177.046875 139.699219 190.675781 146.097656 189.15625 C 146.847656 186.996094 150.3125 184.578125 150.3125 184.578125 C 149.507812 185.566406 147.136719 187.453125 146.863281 189.257812 C 146.675781 190.476562 146.285156 193.601562 151.21875 193.601562 C 157.199219 193.601562 175.6875 193.601562 176.785156 193.601562 C 177.882812 193.601562 177.882812 192.875 177.882812 192.875 C 177.882812 192.875 178.289062 192.960938 178.578125 193.449219 C 178.578125 193.449219 178.578125 192.300781 177.730469 192.066406 C 176.886719 191.828125 177.15625 191.289062 175.519531 191.253906 C 173.878906 191.21875 172.492188 190.980469 171.175781 190.730469 C 169.433594 190.394531 164.953125 190.347656 163.207031 190.289062 C 163.207031 190.289062 166.867188 189.832031 169.832031 189.644531 C 179.515625 182.601562 192.253906 181.898438 203.179688 173.253906 C 203.179688 173.253906 201.820312 175.511719 200.410156 176.304688 C 200.914062 177.550781 201.96875 180.21875 202.875 182.992188 C 204.058594 186.609375 205.460938 195.648438 207.863281 195.648438 Z M 207.867188 195.644531 " fill-opacity="1" fill-rule="evenodd"/></g></svg>